PathFileType	4	(X/Y/Z)	/home/filipkon/dev/OpenSimRT/data/gait1992/experimental_data/task_resampled.trc
DataRate	CameraRate	NumFrames	NumMarkers	Units	OrigDataRate	OrigDataStartFrame	OrigNumFrames
100	100	4	41	mm	100	156	251
Frame#	Time	R.ASIS			L.ASIS			V.Sacral			R.Thigh.Upper			R.Thigh.Front			R.Thigh.Rear			L.Thigh.Upper			L.Thigh.Front			L.Thigh.Rear			R.Shank.Upper			R.Shank.Front			R.Shank.Rear			L.Shank.Upper			L.Shank.Front			L.Shank.Rear			R.Heel			R.Midfoot.Sup			R.Midfoot.Lat			R.Toe.Tip			L.Heel			L.Midfoot.Sup			L.Midfoot.Lat			L.Toe.Tip			Sternum			R.Acromium			L.Acromium			R.Bicep			L.Bicep			R.Elbow			L.Elbow			R.Wrist.Med			R.Wrist.Lat			L.Wrist.Med			L.Wrist.Lat			R.Toe.Lat			R.Toe.Med			L.Toe.Lat			L.Toe.Med			R.Temple			L.Temple			Top.Head			
		X1	Y1	Z1	X2	Y2	Z2	X3	Y3	Z3	X4	Y4	Z4	X5	Y5	Z5	X6	Y6	Z6	X7	Y7	Z7	X8	Y8	Z8	X9	Y9	Z9	X10	Y10	Z10	X11	Y11	Z11	X12	Y12	Z12	X13	Y13	Z13	X14	Y14	Z14	X15	Y15	Z15	X16	Y16	Z16	X17	Y17	Z17	X18	Y18	Z18	X19	Y19	Z19	X20	Y20	Z20	X21	Y21	Z21	X22	Y22	Z22	X23	Y23	Z23	X24	Y24	Z24	X25	Y25	Z25	X26	Y26	Z26	X27	Y27	Z27	X28	Y28	Z28	X29	Y29	Z29	X30	Y30	Z30	X31	Y31	Z31	X32	Y32	Z32	X33	Y33	Z33	X34	Y34	Z34	X35	Y35	Z35	X36	Y36	Z36	X37	Y37	Z37	X38	Y38	Z38	X39	Y39	Z39	X40	Y40	Z40	X41	Y41	Z41	

157	1.56	609.7178911764706	1087.570871764706	126.7954470588235	622.8313229411764	1070.288621764706	-132.5012635294118	419.0127817647058	1072.311234705882	-0.6028929411764716	649.5250617647059	771.5478117647059	196.1613523529412	737.3189370588235	726.7635605882354	118.0423488235294	677.7734688235295	652.6817464705882	198.9569805882353	581.5077005882353	763.4447976470589	-176.0122682352941	668.26697	730.63956	-105.0872252941176	583.2767811764705	653.6749223529412	-153.8062864705882	602.7473482352941	527.0133970588236	185.3561970588235	640.3272529411765	444.91047	143.6610411764706	553.8130511764706	455.1996552941176	191.3150364705882	570.6547076470588	439.1874011764706	-141.1756217647059	614.5902970588235	389.6643170588235	-85.13519470588236	549.7895317647059	396.4737535294117	-147.2679052941176	300.812005882353	286.1257976470588	82.78010470588235	408.1617270588237	184.6078935294117	77.64604941176471	370.5226647058824	186.018074117647	176.2656547058824	477.9850205882354	64.88315588235294	136.8584776470588	464.6308729411764	76.39652529411765	-44.59182647058824	634.9250999999999	75.78465352941176	-13.17836117647059	620.3274876470588	68.50692588235293	-110.7502005882353	746.4531929411763	50.15686529411764	-41.47736294117647	635.6154870588235	1388.010688823529	-19.45944470588235	521.0504882352941	1482.967486470588	180.0270664705882	580.3769088235294	1490.035845882353	-234.6863976470588	516.391798235294	1285.869811764706	236.2188958823529	623.8999223529412	1252.41181	-250.3097170588235	465.0949258823529	1187.63268117647	266.9103423529411	588.7820582352941	1150.770184705882	-288.06152	585.07511	946.123505882353	283.3530370588235	539.1267947058824	938.5729947058824	331.0433617647059	718.1750747058824	938.9740341176472	-224.9853764705882	680.2212517647059	922.0282852941176	-287.6842694117647	408.628377647059	104.50696	202.8238582352941	446.7422023529413	98.66381529411763	97.26746176470589	683.0710382352941	42.43078705882353	-117.8373941176471	696.1749423529411	51.18736294117647	-16.85583941176471	693.2454382352942	1614.585359411765	59.14970823529412	710.3603017647058	1616.917915882353	-79.03707470588235	695.8025641176471	1791.916384117647	-5.384860588235294	
158	1.57	609.721939375	1088.791685	125.352164375	621.2109224999999	1070.119153125	-133.9711075	417.895113125	1072.8074925	-0.7269218750000004	653.524695625	774.63260125	195.58002875	741.57458625	730.8984931250001	116.42532625	684.0756456250001	656.108901875	197.934821875	575.7609899999999	763.6491231250001	-176.485161875	662.754575	729.72285875	-105.7975075	576.02919375	653.9677624999999	-154.42918125	611.196863125	527.80147875	184.169615	651.3511075000001	447.022088125	142.329768125	564.7945762500001	454.31609875	190.7724025	561.0480362499999	439.01567875	-141.43507125	604.7565249999999	389.417208125	-85.44627374999999	539.8102518749999	396.587953125	-147.329203125	316.6629012500002	276.5106768749999	83.02189	428.2197981250002	179.6542293749999	77.30677	391.2605737500002	179.3231449999999	176.104728125	503.1940012500003	62.68870312499998	135.768365	453.1450937499998	76.53501625	-44.599854375	623.3872324999999	75.51898312499999	-12.90769625	608.9366249999998	68.60888874999999	-110.76131875	735.1000999999999	49.92764125	-41.58246875	634.70577875	1388.43948125	-19.766584375	519.8604675	1483.07202375	179.496040625	580.0972375	1491.037015	-235.04086625	513.28455875	1286.10197125	235.729435	624.9048931249999	1253.694160625	-250.713716875	461.3247	1188.3593275	265.6883368749999	590.708911875	1151.93194	-289.068391875	580.4796618749999	946.5246356250001	282.549473125	534.364270625	939.045575625	329.758073125	723.956904375	943.009075625	-223.975854375	686.3646143750001	924.6279725000001	-285.957044375	432.7780225000003	99.71464437499993	202.3446375	470.7571900000003	95.25412437499996	96.316506875	671.6237506249998	42.27499	-117.94241625	684.8878693749999	51.069770625	-16.932586875	692.4291525	1615.204128125	59.21656062499999	709.54726625	1617.72078375	-79.154774375	694.7389925	1792.38400625	-5.358117500000001	
159	1.58	608.8591706249999	1089.442935	124.053245625	619.5665974999999	1069.776596875	-135.3299325	416.623956875	1073.1065675	-0.7706281250000004	657.8935143750001	777.62423875	195.32209125	744.9113737500001	734.5524368750001	114.53651375	690.3519643750001	659.543008125	197.087128125	569.7410899999999	763.796066875	-176.922368125	658.3057250000001	729.30992125	-107.4118325	569.14530625	654.3923375000001	-154.96881875	619.419406875	528.42514125	184.485165	662.4433325000001	448.933781875	141.021561875	575.1439637500001	452.74656125	190.1333775	551.0643237499999	438.98474125	-142.13980875	594.2539749999999	389.104401875	-85.39408625	529.4898581249998	396.719596875	-147.424946875	334.0703387500002	265.2236331249999	83.40139000000001	450.0150918750002	173.7028606249999	76.98497	413.9648862500002	171.4404949999999	176.038321875	530.4297387500003	60.10164687499997	134.728815	441.1970062499998	76.67620375	-44.661435625	611.3060074999999	75.22182687499999	-12.44148374999999	596.9687749999998	68.74505125	-110.79308125	723.3135999999998	49.70597875	-41.68373125	634.0255412499999	1388.78341875	-19.907065625	518.5770925	1483.09643625	179.009809375	579.7780625	1492.036465	-235.43955375	510.17772125	1285.90070875	235.261985	625.7180368750001	1255.330129375	-251.015173125	457.5348	1188.9121525	264.4392931249999	592.493118125	1152.50544	-289.079798125	576.007768125	946.830154375	281.702016875	529.4300393749999	939.3571943750001	328.589916875	729.912485625	946.628194375	-222.617735625	691.1948956250001	927.4788475	-284.0787256249999	459.2787975000003	93.99782562499993	201.9176625	496.3261900000003	91.27060562499996	95.58706312499999	659.6872193749999	42.13799	-118.08180375	673.1172006249999	50.914739375	-16.995143125	692.1722275	1616.036721875	59.066329375	708.53415375	1618.38309625	-78.901555625	693.3672674999999	1792.84329375	-5.448942500000001	
160	1.59	608.3027494117647	1090.070881176471	123.0916041176471	618.8759658823529	1069.351887647059	-136.7153647058824	415.3057629411765	1073.218204117647	-0.7714364705882352	661.6989023529412	780.0683594117647	194.5370305882353	747.2970923529413	737.9651505882354	112.9908294117647	695.3650664705882	662.5188694117647	196.1562905882353	564.0235076470588	763.8804864705883	-177.4120947058823	653.1782064705882	728.3564782352942	-108.6683658823529	561.9698476470588	654.5354682352942	-155.2507517647059	626.8402635294118	528.2384029411764	183.5742594117647	673.0728852941177	450.6444688235294	140.2602082352941	586.1543164705884	450.8415976470588	189.3310188235294	541.6110347058823	439.2141147058824	-142.4070405882353	584.7972352941175	389.09239	-85.49147588235294	519.7494099999999	396.8551835294118	-147.5460494117647	351.6489947058825	253.3481423529411	83.8058305882353	471.7396282352942	167.4486829411764	76.75984411764706	436.5967152941178	163.3454752941176	176.0670623529412	557.411201764706	57.68337529411763	134.0343258823529	429.8115452941176	76.81079941176471	-44.79530294117647	599.7327776470587	74.93371529411765	-11.78283352941176	585.4239247058823	68.88948764705883	-110.8652023529412	712.0254711764705	49.49495470588235	-41.76208882352941	633.4170964705883	1388.932692941177	-20.00242647058824	517.9616688235294	1482.979456470588	178.7708482352941	579.5014588235294	1492.629492941177	-235.5530782352941	507.3883682352941	1285.954981764706	234.3922594117647	626.5129252941176	1256.291295294118	-251.4042217647059	454.057034117647	1189.258900588235	263.2719741176471	594.0508576470588	1152.929765882353	-289.6380482352941	571.5914335294117	947.0514664705883	280.9626182352941	524.7655523529411	939.26973	327.4800029411765	735.5507082352941	950.6003800000001	-220.7301994117647	698.0064988235295	930.087754117647	-283.0987505882353	485.6658688235296	88.00778529411761	201.4094658823529	521.403423529412	87.27886470588233	95.27671117647058	648.2662682352941	42.03051764705882	-118.2313047058824	661.7576447058823	50.70785176470588	-17.05647411764706	691.4081164705882	1616.361041764706	59.17484411764706	707.7792264705882	1618.781537058823	-78.74773352941176	692.1193035294118	1793.118955294118	-5.292073529411763	
